<svg preserveAspectRatio="none" width="100%" height="100%" overflow="visible" style="display: block;" viewBox="0 0 15.8951 19.5972" fill="none" xmlns="http://www.w3.org/2000/svg">
<g id="Group 238470">
<path id="Vector" fill-rule="evenodd" clip-rule="evenodd" d="M8.02786 18.0511L8.03615 18.0478C8.44261 17.6772 8.86543 17.2723 9.27072 16.8842C9.35306 16.8054 9.43468 16.7272 9.51529 16.6502C9.03392 17.1102 8.51224 17.6054 8.01958 18.0544C8.02162 18.0525 8.02474 18.0518 8.02786 18.0511Z" fill="var(--fill-0, #BAA7D3)"/>
<path id="Vector_2" d="M9.51529 16.6503C9.03792 17.1065 8.52519 17.602 8.03615 18.0479C8.0341 18.0498 8.03098 18.0505 8.02786 18.0512L8.01958 18.0545C8.51224 17.6055 9.03392 17.1103 9.51529 16.6503Z" fill="var(--fill-0, #BAA7D3)"/>
<path id="Vector_3" d="M10.9413 5.10296L10.9262 5.09882C10.5147 4.98213 9.93768 4.49482 9.75041 4.13406C9.36404 3.38982 9.31566 2.35729 10.154 1.90783C10.383 1.7851 10.8202 1.77511 11.0582 1.86185C12.0366 2.21846 12.7621 3.3263 12.4861 4.36633C12.4189 4.61915 12.0947 4.94728 11.8595 5.06749C11.6383 5.17094 11.1651 5.21161 10.9413 5.10296Z" fill="var(--fill-0, #BAA7D3)"/>
<path id="Vector_4" fill-rule="evenodd" clip-rule="evenodd" d="M8.01988 18.0543L8.03646 18.0478C8.15622 17.9985 8.26988 17.9039 8.37921 17.8128C8.4386 17.7634 8.49675 17.715 8.55388 17.6755C9.23008 17.2075 9.80166 16.7424 10.3706 16.1501C10.4205 16.0982 10.5618 15.9532 10.6407 15.88C10.6472 15.8739 10.6537 15.8679 10.6602 15.8619C10.7374 15.7904 10.8135 15.7199 10.9107 15.6099C11.0728 15.3939 11.3428 15.0158 11.5198 14.7132L11.5567 14.6606C11.7422 14.396 11.8899 14.0636 12.0291 13.7505C12.0746 13.648 12.1193 13.5475 12.164 13.4523C12.5523 12.4987 12.5978 11.4744 12.1564 10.5305C11.901 9.98445 11.316 9.25708 10.7962 8.92169C9.85459 8.31413 8.60665 8.12979 7.55259 8.55634C7.35102 8.64516 7.15217 8.74562 6.95862 8.84772C6.91958 8.86832 6.8428 8.92303 6.76533 8.97825C6.6713 9.04526 6.5762 9.11304 6.54632 9.12141C6.36854 9.17127 6.14953 9.38378 5.96203 9.56572C5.83431 9.68965 5.7212 9.79941 5.64569 9.83392C5.49957 9.6866 6.33229 8.55857 6.46049 8.39288C6.94582 7.76574 7.94288 7.05699 8.6882 6.83666C9.13636 6.70418 9.62297 6.61523 10.116 6.52511C11.5101 6.27028 12.9556 6.00606 13.7286 4.72161C13.9686 4.32289 14.1299 3.96576 14.1937 3.48787C14.3472 2.84422 14.3511 2.44585 14.2912 1.7939C14.2739 1.60584 14.2363 1.36821 14.1973 1.12149C14.1348 0.726345 14.0686 0.307815 14.0762 0.0321892C14.0767 0.0142297 14.0927 0.00409005 14.1104 0.00141894C14.1236 -0.000560113 14.1405 -0.00247724 14.1433 0.0105502C14.1469 0.0279958 14.1505 0.0457491 14.1541 0.0636634C14.1734 0.159139 14.2032 0.244534 14.2367 0.340593C14.2416 0.354679 14.2466 0.368993 14.2517 0.383603C14.2616 0.412236 14.2882 0.479287 14.3244 0.570539C14.4327 0.843368 14.6268 1.33254 14.717 1.65812C14.7958 1.94226 14.8748 2.22726 14.9836 2.5067C15.0263 2.61656 15.0553 2.73242 15.0838 2.84692C15.107 2.93962 15.1299 3.03142 15.1597 3.11841C15.5047 4.1232 15.6334 5.22002 15.7572 6.27541C15.7693 6.37862 15.7814 6.48152 15.7936 6.58382C16.1365 9.45573 15.6242 12.4195 14.0211 14.8587C13.7489 15.2728 13.4059 15.5883 13.0588 15.9076L11.7811 17.0172C11.0567 17.545 10.343 18.0651 9.48335 18.3787C9.23502 18.4693 8.98935 18.5718 8.74322 18.6746C8.34162 18.8422 7.93853 19.0104 7.52035 19.1281C7.23362 19.2089 6.94034 19.2712 6.64763 19.3335C6.44281 19.3771 6.23825 19.4206 6.03644 19.4703C5.97687 19.4845 5.91104 19.5059 5.84206 19.5284C5.76742 19.5527 5.68901 19.5782 5.6106 19.5972C5.09842 19.3908 4.47203 19.0615 4.04049 18.7124C3.75131 18.4784 3.45133 18.2318 3.15677 17.9897L3.15573 17.9889L3.14928 17.9836C3.02891 17.8847 2.90927 17.7863 2.79128 17.6896C2.70249 17.6146 2.61912 17.5207 2.53637 17.4275C2.45741 17.3385 2.37898 17.2502 2.29698 17.1795C1.97128 16.8989 1.70553 16.6239 1.42727 16.2969C0.896976 15.663 0.487804 14.9371 0.220203 14.1552C-0.00286802 13.516 -0.0289072 13.0065 0.0221183 12.3377C0.0774046 11.6131 0.598514 10.7943 1.14501 10.3374C2.36076 9.32103 3.80983 9.56848 4.94437 10.5568C5.13366 10.7218 5.2745 10.9024 5.41874 11.0874C5.48399 11.1711 5.54995 11.2557 5.6214 11.3401C5.96693 10.8387 6.16206 10.591 6.67969 10.2551C7.19873 9.91815 7.79111 9.63298 8.42942 9.67785C9.14416 9.7281 9.79795 10.0194 10.2863 10.5443C11.0389 11.346 11.2051 11.9759 11.1706 13.0324C11.1876 14.0046 10.7479 14.8806 10.2515 15.6906C10.1461 15.8625 9.65135 16.5204 9.5156 16.6502C9.03422 17.1102 8.51255 17.6054 8.01988 18.0543Z" fill="var(--fill-0, #BAA7D3)"/>
</g>
</svg>
