<svg width="121" height="35" viewBox="0 0 121 35" fill="none" xmlns="http://www.w3.org/2000/svg">
<path d="M116.47 34.9893H4.47963C2.01695 34.9893 0 33.02 0 30.6156V4.3737C0 1.96928 2.01695 4.49364e-05 4.47963 4.49364e-05H116.47C118.933 4.49364e-05 120.95 1.96928 120.95 4.3737V30.6156C120.95 33.02 118.933 34.9893 116.47 34.9893Z" fill="black"/>
<path d="M116.47 0.700922C118.544 0.700922 120.232 2.3487 120.232 4.3737V30.6156C120.232 32.6406 118.544 34.2884 116.47 34.2884H4.47963C2.40556 34.2884 0.717861 32.6406 0.717861 30.6156V4.3737C0.717861 2.3487 2.40556 0.700922 4.47963 0.700922H116.47ZM116.47 4.49364e-05H4.47963C2.01695 4.49364e-05 0 1.96928 0 4.3737V30.6156C0 33.02 2.01695 34.9893 4.47963 34.9893H116.47C118.933 34.9893 120.95 33.02 120.95 30.6156V4.3737C120.95 1.96928 118.933 4.49364e-05 116.47 4.49364e-05Z" fill="#A6A6A6"/>
<path d="M42.4822 8.96135C42.4822 9.69175 42.2582 10.2767 41.817 10.713C41.3097 11.2302 40.6489 11.4904 39.8392 11.4904C39.0654 11.4904 38.4046 11.2258 37.8626 10.7043C37.3194 10.175 37.0484 9.52556 37.0484 8.74814C37.0484 7.97072 37.3194 7.32124 37.8626 6.7964C38.4046 6.27047 39.0654 6.00586 39.8392 6.00586C40.2245 6.00586 40.5918 6.08349 40.9423 6.22782C41.2917 6.37325 41.5762 6.57006 41.7822 6.8128L41.3141 7.27422C40.9546 6.85982 40.4652 6.65535 39.8392 6.65535C39.2748 6.65535 38.7854 6.84779 38.3699 7.23595C37.9589 7.6252 37.7528 8.12927 37.7528 8.74814C37.7528 9.36701 37.9589 9.87545 38.3699 10.2647C38.7854 10.6485 39.2748 10.8453 39.8392 10.8453C40.4384 10.8453 40.9423 10.6485 41.3399 10.2603C41.6019 10.0034 41.7509 9.64911 41.7901 9.19644H39.8392V8.56445H42.4419C42.4732 8.70112 42.4822 8.83342 42.4822 8.96135Z" fill="white" stroke="white" stroke-width="0.16" stroke-miterlimit="10"/>
<path d="M46.6102 6.77195H44.1654V8.43394H46.3694V9.06593H44.1654V10.7279H46.6102V11.3719H43.4733V6.12793H46.6102V6.77195Z" fill="white" stroke="white" stroke-width="0.16" stroke-miterlimit="10"/>
<path d="M49.5247 11.3719H48.8326V6.77195H47.3331V6.12793H51.0254V6.77195H49.5247V11.3719Z" fill="white" stroke="white" stroke-width="0.16" stroke-miterlimit="10"/>
<path d="M53.6976 11.3719V6.12793H54.3886V11.3719H53.6976Z" fill="white" stroke="white" stroke-width="0.16" stroke-miterlimit="10"/>
<path d="M57.4504 11.3719H56.7639V6.77195H55.2588V6.12793H58.9556V6.77195H57.4504V11.3719Z" fill="white" stroke="white" stroke-width="0.16" stroke-miterlimit="10"/>
<path d="M65.9476 10.6955C65.4179 11.2258 64.7616 11.4904 63.9788 11.4904C63.1915 11.4904 62.5352 11.2258 62.0055 10.6955C61.4769 10.1663 61.2137 9.51681 61.2137 8.74814C61.2137 7.97947 61.4769 7.32998 62.0055 6.80077C62.5352 6.27047 63.1915 6.00586 63.9788 6.00586C64.7571 6.00586 65.4134 6.27047 65.9431 6.80514C66.4762 7.33873 66.7394 7.98384 66.7394 8.74814C66.7394 9.51681 66.4762 10.1663 65.9476 10.6955ZM62.5173 10.256C62.916 10.6485 63.4009 10.8453 63.9788 10.8453C64.5522 10.8453 65.0416 10.6485 65.4358 10.256C65.8334 9.86342 66.0349 9.35936 66.0349 8.74814C66.0349 8.13692 65.8334 7.63286 65.4358 7.24032C65.0416 6.84779 64.5522 6.65097 63.9788 6.65097C63.4009 6.65097 62.916 6.84779 62.5173 7.24032C62.1198 7.63286 61.9182 8.13692 61.9182 8.74814C61.9182 9.35936 62.1198 9.86342 62.5173 10.256Z" fill="white" stroke="white" stroke-width="0.16" stroke-miterlimit="10"/>
<path d="M67.7121 11.3719V6.12793H68.552L71.1637 10.2064H71.1939L71.1637 9.19823V6.12793H71.8546V11.3719H71.1334L68.3986 7.09232H68.3684L68.3986 8.10482V11.3719H67.7121Z" fill="white" stroke="white" stroke-width="0.16" stroke-miterlimit="10"/>
<path d="M61.0438 19.0275C58.9395 19.0275 57.2205 20.5911 57.2205 22.7484C57.2205 24.8882 58.9395 26.4682 61.0438 26.4682C63.1526 26.4682 64.8717 24.8882 64.8717 22.7484C64.8717 20.5911 63.1526 19.0275 61.0438 19.0275ZM61.0438 25.003C59.8892 25.003 58.8959 24.0726 58.8959 22.7484C58.8959 21.4068 59.8892 20.4927 61.0438 20.4927C62.1985 20.4927 63.1963 21.4068 63.1963 22.7484C63.1963 24.0726 62.1985 25.003 61.0438 25.003ZM52.7017 19.0275C50.5929 19.0275 48.8783 20.5911 48.8783 22.7484C48.8783 24.8882 50.5929 26.4682 52.7017 26.4682C54.8093 26.4682 56.525 24.8882 56.525 22.7484C56.525 20.5911 54.8093 19.0275 52.7017 19.0275ZM52.7017 25.003C51.5459 25.003 50.5492 24.0726 50.5492 22.7484C50.5492 21.4068 51.5459 20.4927 52.7017 20.4927C53.8563 20.4927 54.8496 21.4068 54.8496 22.7484C54.8496 24.0726 53.8563 25.003 52.7017 25.003ZM42.7748 20.168V21.7491H46.6418C46.5287 22.6325 46.2264 23.282 45.7627 23.7347C45.1983 24.2814 44.3192 24.8882 42.7748 24.8882C40.395 24.8882 38.5315 23.013 38.5315 20.6895C38.5315 18.366 40.395 16.4908 42.7748 16.4908C44.0616 16.4908 44.9978 16.9818 45.6888 17.6181L46.83 16.5039C45.8635 15.603 44.5779 14.9108 42.7748 14.9108C39.5114 14.9108 36.7687 17.5033 36.7687 20.6895C36.7687 23.8757 39.5114 26.4682 42.7748 26.4682C44.5387 26.4682 45.8635 25.904 46.905 24.8456C47.9723 23.8036 48.3049 22.3384 48.3049 21.1553C48.3049 20.7879 48.2735 20.4501 48.2175 20.168H42.7748ZM83.367 21.3937C83.0523 20.5616 82.0813 19.0275 80.1036 19.0275C78.1437 19.0275 76.512 20.5354 76.512 22.7484C76.512 24.8325 78.1269 26.4682 80.2917 26.4682C82.0421 26.4682 83.0523 25.4262 83.4678 24.8194L82.1687 23.9741C81.7353 24.593 81.1451 25.003 80.2917 25.003C79.4439 25.003 78.8358 24.6236 78.4461 23.8757L83.5428 21.8168L83.367 21.3937ZM78.1706 22.6325C78.1269 21.198 79.3118 20.4632 80.1607 20.4632C80.8259 20.4632 81.3903 20.7879 81.5785 21.2526L78.1706 22.6325ZM74.0281 26.2419H75.7034V15.3078H74.0281V26.2419ZM71.2843 19.8564H71.2283C70.852 19.4212 70.1341 19.0275 69.2248 19.0275C67.3165 19.0275 65.5716 20.6633 65.5716 22.7605C65.5716 24.8456 67.3165 26.4682 69.2248 26.4682C70.1341 26.4682 70.852 26.0713 71.2283 25.623H71.2843V26.1566C71.2843 27.5791 70.5059 28.3434 69.2505 28.3434C68.2269 28.3434 67.5919 27.6218 67.3299 27.0149L65.8729 27.6086C66.2929 28.5949 67.4049 29.8086 69.2505 29.8086C71.2148 29.8086 72.8723 28.6802 72.8723 25.9346V19.2539H71.2843V19.8564ZM69.3681 25.003C68.2135 25.003 67.247 24.0594 67.247 22.7605C67.247 21.4495 68.2135 20.4927 69.3681 20.4927C70.5059 20.4927 71.403 21.4495 71.403 22.7605C71.403 24.0594 70.5059 25.003 69.3681 25.003ZM91.2108 15.3078H87.2038V26.2419H88.8747V22.0989H91.2108C93.0665 22.0989 94.8863 20.7879 94.8863 18.7028C94.8863 16.6188 93.062 15.3078 91.2108 15.3078ZM91.2545 20.578H88.8747V16.8287H91.2545C92.502 16.8287 93.2143 17.8401 93.2143 18.7028C93.2143 19.5491 92.502 20.578 91.2545 20.578ZM101.583 19.0068C100.376 19.0068 99.1207 19.5272 98.6044 20.6808L100.087 21.2876C100.406 20.6808 100.993 20.484 101.614 20.484C102.48 20.484 103.36 20.9924 103.373 21.8901V22.0049C103.071 21.8343 102.423 21.5818 101.627 21.5818C100.03 21.5818 98.4028 22.4401 98.4028 24.0419C98.4028 25.5071 99.7109 26.4507 101.181 26.4507C102.306 26.4507 102.926 25.9554 103.316 25.3792H103.373V26.2244H104.987V22.0301C104.987 20.0914 103.504 19.0068 101.583 19.0068ZM101.382 24.9987C100.835 24.9987 100.074 24.7341 100.074 24.0726C100.074 23.2263 101.023 22.9015 101.845 22.9015C102.581 22.9015 102.926 23.0601 103.373 23.2689C103.242 24.2814 102.349 24.9987 101.382 24.9987ZM110.866 19.2462L108.946 23.9862H108.889L106.903 19.2462H105.101L108.084 25.8701L106.382 29.556H108.128L112.725 19.2462H110.866ZM95.8046 26.2419H97.48V15.3078H95.8046V26.2419Z" fill="white"/>
<path d="M9.34987 6.59509C9.08669 6.86407 8.93439 7.28285 8.93439 7.82518V27.1698C8.93439 27.7122 9.08669 28.131 9.34987 28.3999L9.41483 28.459L20.5176 17.6233V17.3674L9.41483 6.53168L9.34987 6.59509Z" fill="url(#paint0_linear_326_87)"/>
<path d="M24.2141 21.2383L20.5173 17.6246V17.3687L24.2186 13.755L24.3014 13.802L28.6848 16.237C29.9357 16.928 29.9357 18.0652 28.6848 18.7606L24.3014 21.1913L24.2141 21.2383Z" fill="url(#paint1_linear_326_87)"/>
<path d="M24.2994 21.1914L20.5153 17.4968L9.34753 28.4014C9.76302 28.8278 10.4406 28.8792 11.2111 28.4528L24.2994 21.1914Z" fill="url(#paint2_linear_326_87)"/>
<path d="M24.2991 13.8005L11.2108 6.53912C10.4403 6.11706 9.76271 6.16845 9.34723 6.59488L20.5149 17.4951L24.2991 13.8005Z" fill="url(#paint3_linear_326_87)"/>
<defs>
<linearGradient id="paint0_linear_326_87" x1="19.5318" y1="27.3713" x2="4.85593" y2="12.3398" gradientUnits="userSpaceOnUse">
<stop stop-color="#00A0FF"/>
<stop offset="0.0066" stop-color="#00A1FF"/>
<stop offset="0.2601" stop-color="#00BEFF"/>
<stop offset="0.5122" stop-color="#00D2FF"/>
<stop offset="0.7604" stop-color="#00DFFF"/>
<stop offset="1" stop-color="#00E3FF"/>
</linearGradient>
<linearGradient id="paint1_linear_326_87" x1="30.3137" y1="17.4954" x2="8.63505" y2="17.4954" gradientUnits="userSpaceOnUse">
<stop stop-color="#FFE000"/>
<stop offset="0.4087" stop-color="#FFBD00"/>
<stop offset="0.7754" stop-color="#FFA500"/>
<stop offset="1" stop-color="#FF9C00"/>
</linearGradient>
<linearGradient id="paint2_linear_326_87" x1="22.2417" y1="15.4883" x2="2.34003" y2="-4.89562" gradientUnits="userSpaceOnUse">
<stop stop-color="#FF3A44"/>
<stop offset="1" stop-color="#C31162"/>
</linearGradient>
<linearGradient id="paint3_linear_326_87" x1="6.53608" y1="34.8356" x2="15.4231" y2="25.7334" gradientUnits="userSpaceOnUse">
<stop stop-color="#32A071"/>
<stop offset="0.0685" stop-color="#2DA771"/>
<stop offset="0.4762" stop-color="#15CF74"/>
<stop offset="0.8009" stop-color="#06E775"/>
<stop offset="1" stop-color="#00F076"/>
</linearGradient>
</defs>
</svg>
