<svg width="16" height="20" viewBox="0 0 16 20" fill="none" xmlns="http://www.w3.org/2000/svg">
<path fill-rule="evenodd" clip-rule="evenodd" d="M8.02793 18.051L8.03623 18.0478C8.44269 17.6771 8.86551 17.2723 9.2708 16.8842C9.35314 16.8053 9.43476 16.7272 9.51537 16.6501C9.03399 17.1102 8.51232 17.6054 8.01965 18.0543C8.0217 18.0524 8.02482 18.0517 8.02793 18.051Z" fill="#BAA7D3"/>
<path d="M9.51537 16.6503C9.038 17.1065 8.52527 17.602 8.03623 18.048C8.03417 18.0498 8.03105 18.0505 8.02793 18.0512L8.01965 18.0545C8.51232 17.6056 9.03399 17.1103 9.51537 16.6503Z" fill="#BAA7D3"/>
<path d="M10.9414 5.10301L10.9263 5.09887C10.5148 4.98218 9.93778 4.49487 9.75051 4.13411C9.36413 3.38987 9.31575 2.35734 10.1541 1.90788C10.383 1.78515 10.8203 1.77516 11.0583 1.8619C12.0367 2.2185 12.7622 3.32635 12.4862 4.36638C12.419 4.6192 12.0947 4.94732 11.8596 5.06754C11.6384 5.17099 11.1652 5.21166 10.9414 5.10301Z" fill="#BAA7D3"/>
<path fill-rule="evenodd" clip-rule="evenodd" d="M8.02 18.0543L8.03658 18.0478C8.15634 17.9985 8.27 17.9039 8.37933 17.8128C8.43872 17.7634 8.49687 17.715 8.554 17.6755C9.2302 17.2075 9.80178 16.7424 10.3707 16.1501C10.4206 16.0982 10.5619 15.9532 10.6408 15.88C10.6473 15.8739 10.6538 15.8679 10.6603 15.8619C10.7375 15.7904 10.8136 15.7199 10.9109 15.6099C11.0729 15.3939 11.343 15.0158 11.5199 14.7132L11.5568 14.6606C11.7423 14.396 11.89 14.0636 12.0292 13.7505C12.0748 13.648 12.1194 13.5475 12.1642 13.4523C12.5524 12.4987 12.5979 11.4744 12.1565 10.5305C11.9012 9.98445 11.3162 9.25708 10.7963 8.92169C9.85471 8.31413 8.60678 8.12979 7.55272 8.55634C7.35114 8.64516 7.15229 8.74562 6.95874 8.84772C6.9197 8.86831 6.84292 8.92303 6.76545 8.97825C6.67142 9.04526 6.57632 9.11304 6.54644 9.12142C6.36866 9.17127 6.14966 9.38378 5.96215 9.56572C5.83443 9.68965 5.72133 9.79941 5.64581 9.83392C5.49969 9.6866 6.33241 8.55857 6.46061 8.39288C6.94594 7.76574 7.943 7.05699 8.68832 6.83666C9.13648 6.70418 9.62309 6.61523 10.1161 6.52511C11.5102 6.27028 12.9557 6.00606 13.7287 4.72161C13.9687 4.32289 14.13 3.96576 14.1938 3.48787C14.3473 2.84422 14.3512 2.44585 14.2913 1.7939C14.274 1.60584 14.2365 1.36821 14.1974 1.12149C14.1349 0.726345 14.0687 0.307815 14.0764 0.0321892C14.0769 0.0142297 14.0928 0.00409005 14.1106 0.00141894C14.1237 -0.000560113 14.1407 -0.00247724 14.1434 0.0105502C14.1471 0.0279958 14.1506 0.0457491 14.1543 0.0636634C14.1735 0.159139 14.2033 0.244534 14.2368 0.340593C14.2417 0.354679 14.2467 0.368993 14.2518 0.383603C14.2617 0.412236 14.2883 0.479287 14.3245 0.570539C14.4328 0.843368 14.6269 1.33254 14.7171 1.65812C14.7959 1.94226 14.8749 2.22726 14.9837 2.5067C15.0265 2.61656 15.0554 2.73242 15.0839 2.84692C15.1071 2.93962 15.13 3.03142 15.1598 3.11841C15.5048 4.1232 15.6335 5.22002 15.7573 6.27541C15.7694 6.37862 15.7815 6.48152 15.7937 6.58383C16.1366 9.45573 15.6243 12.4195 14.0212 14.8587C13.7491 15.2728 13.406 15.5883 13.0589 15.9076L11.7812 17.0172C11.0568 17.545 10.3431 18.0651 9.48348 18.3787C9.23514 18.4693 8.98947 18.5718 8.74335 18.6746C8.34174 18.8422 7.93865 19.0104 7.52048 19.1281C7.23374 19.2089 6.94046 19.2712 6.64775 19.3335C6.44294 19.3771 6.23837 19.4206 6.03656 19.4703C5.97699 19.4845 5.91116 19.5059 5.84218 19.5284C5.76754 19.5527 5.68913 19.5782 5.61072 19.5972C5.09854 19.3908 4.47216 19.0615 4.04061 18.7124C3.75143 18.4784 3.45145 18.2318 3.15689 17.9897L3.15585 17.9889L3.1494 17.9836C3.02904 17.8847 2.90939 17.7863 2.79141 17.6896C2.70261 17.6146 2.61924 17.5207 2.53649 17.4275C2.45753 17.3385 2.3791 17.2502 2.29711 17.1795C1.9714 16.8989 1.70565 16.6239 1.4274 16.2969C0.897098 15.663 0.487926 14.9371 0.220325 14.1552C-0.00274595 13.516 -0.0287851 13.0065 0.0222404 12.3377C0.0775267 11.6131 0.598637 10.7943 1.14513 10.3374C2.36088 9.32103 3.80996 9.56848 4.94449 10.5568C5.13379 10.7218 5.27462 10.9024 5.41886 11.0874C5.48411 11.1711 5.55007 11.2557 5.62152 11.3401C5.96705 10.8387 6.16219 10.591 6.67981 10.2551C7.19885 9.91815 7.79123 9.63298 8.42954 9.67785C9.14428 9.7281 9.79807 10.0194 10.2864 10.5443C11.039 11.346 11.2053 11.9759 11.1707 13.0324C11.1877 14.0046 10.7481 14.8806 10.2516 15.6906C10.1462 15.8625 9.65147 16.5204 9.51572 16.6502C9.03434 17.1102 8.51267 17.6054 8.02 18.0543Z" fill="#BAA7D3"/>
</svg>
